<?xml version="1.0" encoding="UTF-8"?>
<!DOCTYPE svg PUBLIC "-//W3C//DTD SVG 1.1//EN" "http://www.w3.org/Graphics/SVG/1.1/DTD/svg11.dtd">
<!-- Creator: CorelDRAW -->
<svg xmlns="http://www.w3.org/2000/svg" xml:space="preserve" width="401.264mm" height="197.104mm" version="1.1" style="shape-rendering:geometricPrecision; text-rendering:geometricPrecision; image-rendering:optimizeQuality; fill-rule:evenodd; clip-rule:evenodd"
viewBox="0 0 40116.42 19705.53"
 xmlns:xlink="http://www.w3.org/1999/xlink"
 xmlns:xodm="http://www.corel.com/coreldraw/odm/2003">
 <defs>
  <style type="text/css">
   <![CDATA[
    .fil0 {fill:#D3AE6E;fill-rule:nonzero}
   ]]>
  </style>
 </defs>
 <g id="Слой_x0020_1">
  <metadata id="CorelCorpID_0Corel-Layer"/>
  <path class="fil0" d="M2326.9 9979.83l213.08 0c179.18,0 343.81,-29.06 493.94,-87.17 147.7,-55.7 314.77,-162.23 498.79,-317.19 184.02,-157.38 467.31,-447.94 845.03,-874.08 452.78,-506.05 762.7,-871.66 929.77,-1099.27 208.23,-268.76 346.24,-496.37 418.89,-680.38 55.69,-138.02 84.74,-268.76 84.74,-397.09 0,-188.86 -55.69,-326.88 -164.65,-416.47 -108.95,-87.17 -256.66,-140.43 -445.51,-157.38l0 -348.67 3091.98 0 0 348.67c-150.12,31.47 -300.24,89.59 -447.94,171.91 -145.27,82.33 -295.4,196.12 -450.36,341.4 -152.54,145.27 -377.73,382.56 -675.54,711.85l-2384.96 2682.79 2583.51 3752.99c273.6,397.09 489.1,673.12 644.06,832.92 157.38,157.39 305.08,273.61 447.94,346.24 140.43,75.06 292.98,123.49 452.78,145.28l0 348.66 -3128.3 0 0 -348.66c176.76,-12.11 302.66,-46.01 384.98,-99.28 79.9,-50.85 118.64,-128.33 118.64,-232.44 0,-84.75 -26.63,-188.86 -79.9,-309.92 -55.69,-118.65 -140.43,-266.34 -259.08,-435.83l-1653.73 -2460.04c-193.71,-295.4 -336.57,-489.1 -426.15,-583.52 -89.59,-94.44 -186.43,-164.65 -290.55,-208.23 -104.12,-46.01 -242.13,-67.8 -418.89,-67.8l-375.3 0 0 2973.35c0,314.76 12.1,547.2 31.47,694.91 21.79,145.27 58.12,261.49 106.53,346.24 50.85,84.74 123.49,157.38 220.35,213.08 96.85,58.11 254.23,113.79 472.14,169.49l0 348.66 -2987.86 0 0 -348.66c295.4,-75.06 491.52,-157.39 590.79,-251.82 99.28,-92.01 164.65,-222.75 193.7,-392.25 31.48,-169.49 46.01,-430.98 46.01,-779.65l0 -6137.97c0,-324.45 -12.11,-564.16 -33.9,-711.86 -24.21,-150.11 -62.95,-263.91 -118.64,-348.66 -53.27,-82.32 -125.91,-147.69 -215.5,-198.54 -89.59,-48.43 -244.55,-104.12 -462.46,-164.65l0 -348.67 2987.86 0 0 348.67c-208.23,50.85 -358.35,101.69 -450.36,154.96 -92.01,50.85 -167.07,116.22 -220.34,196.12 -53.27,77.48 -94.43,193.7 -121.06,351.09 -26.64,154.96 -38.74,397.09 -38.74,721.54l-7.27 2605.31zm10924.82 4290.52l-106.52 -29.06c-411.62,421.3 -799.03,719.13 -1159.8,893.46 -363.19,176.76 -748.17,263.92 -1152.53,263.92 -360.77,0 -677.96,-70.22 -951.56,-210.66 -273.61,-138.01 -484.26,-334.14 -631.96,-588.37 -145.27,-251.81 -220.34,-544.78 -220.34,-876.5 0,-690.07 341.4,-1222.75 1026.62,-1598.05 682.81,-375.3 1707.01,-595.63 3075.04,-656.17l0 -462.46c0,-491.53 -48.43,-878.93 -142.85,-1162.22 -94.44,-283.29 -242.13,-491.52 -445.52,-624.69 -203.39,-133.17 -477,-198.54 -815.98,-198.54 -370.46,0 -665.85,96.85 -891.04,290.55 -225.17,193.7 -394.66,484.26 -506.04,874.09l-929.78 0 0 -922.51c452.79,-237.29 830.5,-411.63 1133.17,-523 302.65,-111.38 605.32,-198.55 907.98,-261.5 302.65,-62.95 610.16,-96.85 922.51,-96.85 469.72,0 845.03,75.06 1128.31,225.17 283.29,147.7 496.37,375.31 639.22,682.81 140.43,307.5 213.08,772.39 213.08,1392.23l0 2467.29c0,351.09 2.42,598.06 7.26,740.92 4.84,145.27 16.95,278.45 41.16,401.93 24.21,123.49 60.53,220.35 106.54,292.98 48.42,75.06 118.64,138.02 210.65,188.86 92.01,53.27 242.13,106.53 450.36,162.23l0 348.66 -1944.29 0 36.32 -1014.52zm-121.05 -2220.33c-961.25,9.69 -1680.38,138.02 -2157.37,382.56 -476.99,246.97 -716.7,617.43 -716.7,1113.79 0,271.18 55.7,481.84 164.65,639.22 108.96,154.96 244.55,263.92 411.62,322.03 164.65,60.53 360.77,89.59 588.37,89.59 319.61,0 612.59,-77.48 874.08,-234.86 263.92,-154.96 467.31,-353.51 615.02,-595.64 145.27,-242.13 220.34,-479.41 220.34,-716.7l0 -999.99zm8462.39 1176.75l0 2058.1 -5462.43 0 0 -348.66 3888.59 -5857.1 -1922.51 0c-237.28,0 -423.72,41.16 -561.73,125.91 -135.6,84.75 -266.34,227.6 -389.83,426.14 -123.49,198.55 -239.71,464.89 -353.51,801.45l-617.43 0 0 -1929.77 5377.68 0 0 355.93 -3881.32 5852.25 1866.81 0c244.55,0 428.56,-19.37 552.05,-58.11 123.49,-36.32 230.02,-96.86 319.61,-179.18 89.59,-84.75 176.76,-215.5 261.5,-394.67 84.74,-179.18 186.43,-462.46 305.07,-852.3l617.44 0zm5358.29 1043.58l-106.53 -29.06c-411.62,421.3 -799.03,719.13 -1159.8,893.46 -363.19,176.76 -748.17,263.92 -1152.53,263.92 -360.77,0 -677.96,-70.22 -951.56,-210.66 -273.61,-138.01 -484.26,-334.14 -631.96,-588.37 -145.27,-251.81 -220.34,-544.78 -220.34,-876.5 0,-690.07 341.4,-1222.75 1026.62,-1598.05 682.81,-375.3 1707.01,-595.63 3075.04,-656.17l0 -462.46c0,-491.53 -48.43,-878.93 -142.85,-1162.22 -94.44,-283.29 -242.13,-491.52 -445.52,-624.69 -203.39,-133.17 -477,-198.54 -815.98,-198.54 -370.46,0 -665.85,96.85 -891.04,290.55 -225.17,193.7 -394.66,484.26 -506.04,874.09l-929.78 0 0 -922.51c452.79,-237.29 830.5,-411.63 1133.17,-523 302.65,-111.38 605.32,-198.55 907.98,-261.5 302.65,-62.95 610.16,-96.85 922.51,-96.85 469.72,0 845.03,75.06 1128.32,225.17 283.29,147.7 496.37,375.31 639.22,682.81 140.43,307.5 213.08,772.39 213.08,1392.23l0 2467.29c0,351.09 2.42,598.06 7.26,740.92 4.84,145.27 16.95,278.45 41.16,401.93 24.21,123.49 60.53,220.35 106.54,292.98 48.42,75.06 118.64,138.02 210.65,188.86 92.01,53.27 242.13,106.53 450.36,162.23l0 348.66 -1944.29 0 36.32 -1014.52zm-121.06 -2220.33c-961.25,9.69 -1680.38,138.02 -2157.37,382.56 -476.99,246.97 -716.7,617.43 -716.7,1113.79 0,271.18 55.7,481.84 164.65,639.22 108.96,154.96 244.55,263.92 411.62,322.03 164.65,60.53 360.77,89.59 588.37,89.59 319.61,0 612.59,-77.48 874.08,-234.86 263.92,-154.96 467.31,-353.51 615.02,-595.64 145.27,-242.13 220.34,-479.41 220.34,-716.7l0 -999.99zm10024.12 3234.84l-2796.59 0 0 -348.66c186.44,-55.7 317.19,-106.54 397.09,-147.7 82.33,-43.58 147.7,-101.69 203.39,-176.76 53.27,-77.48 96.86,-193.7 128.33,-351.08 29.05,-159.81 46.01,-399.51 46.01,-721.54l0 -1857.13c0,-331.72 -9.69,-631.96 -29.06,-900.73 -19.37,-271.18 -50.85,-491.52 -96.85,-663.43 -43.59,-174.33 -99.28,-307.5 -162.23,-404.35 -62.95,-96.86 -140.43,-179.18 -227.6,-249.4 -87.16,-67.79 -186.43,-123.48 -300.24,-162.22 -113.8,-41.17 -263.92,-60.53 -447.94,-60.53 -184.01,0 -358.35,36.32 -525.42,108.95 -164.65,75.06 -346.24,200.97 -544.79,380.15 -198.54,179.18 -343.82,358.35 -433.41,532.69 -89.59,174.33 -135.59,375.3 -135.59,602.9l0 2646.47c0,406.77 19.37,687.64 58.11,847.45 38.74,157.38 108.96,278.44 215.5,360.77 106.54,82.32 280.87,154.96 523,215.5l0 348.66 -2782.05 0 0 -348.66c184,-55.7 317.18,-106.54 394.66,-147.7 77.48,-43.58 142.85,-101.69 198.54,-176.76 53.27,-77.48 96.86,-191.28 128.33,-348.66 29.05,-154.96 46.01,-399.51 46.01,-731.23l0 -3091.99c0,-302.65 -4.85,-547.2 -14.53,-731.23 -9.69,-184.01 -43.59,-331.72 -99.28,-443.09 -58.12,-111.38 -142.85,-193.7 -259.08,-246.98 -116.23,-55.69 -280.87,-101.69 -493.94,-140.43l0 -375.3 1661 -62.95 430.98 0 -77.48 1154.95 99.28 29.06c351.09,-353.51 631.95,-607.75 847.45,-757.86 215.5,-152.54 433.41,-268.76 653.75,-351.09 220.35,-84.75 452.79,-125.91 697.34,-125.91 256.66,0 484.26,31.48 685.22,89.59 200.97,58.12 377.73,150.12 532.69,273.61 152.54,123.48 280.87,276.02 380.15,457.62 99.27,181.6 171.91,399.52 222.75,656.18 48.43,254.23 75.06,578.69 75.06,970.93l0 2675.53c0,324.45 9.69,561.73 26.63,709.43 19.38,145.27 53.27,259.08 99.28,338.98 48.43,79.91 116.22,147.7 205.81,203.39 89.59,53.27 246.97,111.38 469.73,171.92l0 348.66z"/>
  <path class="fil0" d="M653.33 1653.06l0 727.88c0,102.3 3.65,176.85 11.69,223.62 8.05,46.04 19.74,81.11 35.81,104.49 15.35,24.12 36.54,43.12 63.58,58.47 27.76,14.62 73.81,31.42 139.58,49.7l0 105.23 -903.98 0 0 -105.23c89.15,-22.65 148.34,-47.5 178.31,-76 29.96,-27.77 49.7,-67.23 58.47,-118.39 9.5,-51.16 13.89,-130.08 13.89,-235.31l0 -1852.57c0,-97.93 -3.65,-170.28 -10.23,-214.86 -7.31,-45.31 -19.01,-79.65 -35.81,-105.23 -16.08,-24.84 -38,-44.58 -65.04,-59.93 -27.03,-14.62 -73.81,-31.42 -139.58,-49.69l0 -105.24 1060.38 0c333.98,0 583.9,60.66 749.06,181.97 165.9,121.31 248.48,309.85 248.48,564.9 0,195.85 -54.09,362.48 -161.51,499.14 -108.15,137.39 -269.66,244.09 -485.25,321.55l0 16.81c86.97,35.81 161.51,86.97 223.62,152.74 62.11,66.49 131.55,169.54 206.82,309.85l192.92 350.78c55.55,103.04 103.04,181.23 143.24,235.31 40.19,54.82 80.38,95.74 122.04,124.24 41.65,28.5 96.47,48.96 165.16,59.93l0 105.23 -593.4 0c-54.09,-76 -105.23,-157.12 -154.2,-244.09 -48.23,-86.96 -96.47,-175.39 -143.23,-265.27l-188.54 -358.09c-57.01,-108.15 -103.77,-187.81 -140.31,-239.7 -36.54,-51.16 -70.15,-86.97 -100.84,-108.15 -30.7,-20.46 -63.58,-34.35 -97.94,-42.39 -35.07,-8.04 -87.69,-11.7 -157.85,-11.7l-235.31 0zm0 -1455.74l0 1271.58 241.89 0c124.24,0 225.08,-8.77 301.82,-27.04 77.46,-17.54 148.34,-51.89 214.12,-101.57 65.77,-49.7 118.39,-119.85 157.12,-209.01 39.46,-89.16 59.2,-198.78 59.2,-328.13 0,-135.93 -23.38,-248.47 -69.42,-338.36 -46.77,-89.89 -116.93,-158.59 -211.2,-206.09 -94.28,-46.77 -220.7,-70.15 -380.75,-70.15 -128.63,0 -233.12,2.92 -312.78,8.77zm3650.31 2361.19c-91.35,95.74 -175.39,170.28 -251.39,225.08 -76.73,54.09 -160.05,96.47 -251.4,127.16 -91.35,30.7 -192.2,46.05 -302.54,46.05 -293.79,0 -515.94,-88.43 -665.75,-264.55 -149.81,-176.12 -224.35,-436.28 -224.35,-780.49 0,-212.66 38,-400.48 114,-562.71 76.73,-162.97 185.62,-288.67 326.67,-377.1 141.77,-88.42 304,-133 488.17,-133 143.96,0 266.74,23.38 368.32,68.69 101.58,46.04 182.7,108.15 243.36,187.81 60.65,78.92 107.42,179.05 141.04,299.63 33.61,120.58 52.62,277.7 57,472.09l-1349.04 0 0 38c0,168.82 19,310.59 57,425.32 37.27,114.73 99.4,204.62 185.62,269.66 86.97,65.04 198.78,97.2 337.63,97.2 116.93,0 222.16,-21.19 315.71,-65.04 93.54,-43.85 186.34,-114.73 279.16,-212.66l130.81 138.85zm-359.55 -869.64c-8.77,-153.46 -27.76,-279.89 -57.73,-377.82 -29.96,-97.2 -75.27,-172.47 -135.2,-224.35 -59.93,-51.89 -138.13,-78.2 -235.32,-78.2 -146.89,0 -264.54,58.47 -352.24,176.86 -87.7,117.66 -139.59,285.74 -154.93,503.51l935.42 0zm2222.35 -344.2l-205.35 0c-31.42,-85.5 -68.69,-153.46 -111.81,-202.43 -42.39,-48.96 -91.35,-84.04 -145.42,-103.77 -54.09,-19.73 -120.58,-29.96 -198.78,-29.96 -114,0 -205.35,26.31 -273.31,80.39 -67.97,53.35 -101.58,126.43 -101.58,219.24 0,65.77 13.89,119.85 40.92,162.97 27.04,42.39 68.7,82.58 126.43,119.85 57.01,37.27 157.12,86.24 301.82,147.62 145.42,62.84 257.97,120.58 336.9,173.2 79.65,52.62 141.04,114 186.35,184.16 45.31,70.15 67.23,153.46 67.23,250.66 0,112.54 -19.01,207.55 -57.74,285.01 -38.73,76.73 -92.82,139.59 -162.24,187.81 -70.15,48.97 -153.46,84.04 -249.93,105.23 -96.47,21.19 -201.7,32.16 -315.7,32.16 -119.85,0 -236.05,-8.78 -348.59,-27.04 -113.27,-17.54 -222.89,-40.92 -330.32,-69.42l0 -447.25 210.47 0c38,130.81 95.01,226.54 171.01,285.74 75.27,59.2 179.78,88.43 312.78,88.43 51.15,0 101.57,-5.12 150.54,-16.08 49.69,-10.24 93.54,-28.5 131.54,-53.35 38.74,-24.85 69.43,-58.47 92.09,-101.58 23.38,-43.12 34.34,-96.47 34.34,-160.77 0,-72.35 -13.89,-131.55 -42.38,-177.59 -28.5,-45.31 -73.08,-86.97 -133.01,-124.97 -59.93,-38 -165.89,-89.16 -317.17,-153.46 -129.35,-54.09 -233.85,-106.7 -312.04,-157.85 -78.93,-51.89 -140.31,-112.54 -185.62,-182.7 -44.58,-69.42 -67.23,-152.73 -67.23,-247.74 0,-117.66 31.42,-219.24 95.01,-305.47 63.57,-86.23 155.65,-152 275.5,-198.04 119.85,-45.31 260.17,-68.69 421.67,-68.69 94.27,0 184.88,5.11 272.58,13.88 88.43,9.51 198.05,27.77 331.05,54.82l0 437.01zm320.83 -361.74c71.61,-11.7 129.35,-31.42 173.93,-59.93 43.85,-28.5 78.92,-65.77 103.77,-110.35 24.84,-45.31 44.58,-101.58 58.46,-169.55 14.62,-67.23 29.23,-166.62 45.32,-295.97l304 0 0 528.36 691.33 0 0 216.32 -691.33 0 0 952.96c0,138.12 5.85,248.47 16.81,330.32 11.7,82.58 32.89,146.88 64.31,192.93 31.42,46.77 67.23,79.65 107.42,99.39 39.47,20.46 91.35,29.96 154.19,29.96 57.01,0 110.35,-11.7 160.04,-35.08 50.43,-23.38 99.4,-57.73 148.35,-101.57l95.74 115.46c-100.85,98.66 -197.31,170.28 -287.94,214.13 -90.62,44.58 -184.15,66.5 -281.34,66.5 -184.16,0 -320.82,-54.82 -410.71,-163.7 -89.89,-109.62 -135.2,-280.63 -135.2,-513.02l0 -1188.27 -317.16 0 0 -108.88zm2850.08 1633.32l-32.15 -8.77c-124.24,127.16 -241.16,217.05 -350.05,269.66 -109.62,53.35 -225.81,79.66 -347.85,79.66 -108.89,0 -204.63,-21.19 -287.21,-63.58 -82.58,-41.65 -146.15,-100.84 -190.73,-177.59 -43.85,-76 -66.5,-164.43 -66.5,-264.54 0,-208.28 103.04,-369.05 309.85,-482.32 206.09,-113.28 515.21,-179.78 928.11,-198.05l0 -139.59c0,-148.34 -14.62,-265.27 -43.11,-350.77 -28.5,-85.51 -73.08,-148.35 -134.47,-188.55 -61.39,-40.19 -143.97,-59.93 -246.28,-59.93 -111.81,0 -200.97,29.23 -268.93,87.7 -67.96,58.47 -119.12,146.16 -152.74,263.81l-280.62 0 0 -278.43c136.66,-71.61 250.66,-124.23 342.01,-157.85 91.35,-33.61 182.69,-59.93 274.04,-78.93 91.35,-19 184.16,-29.22 278.43,-29.22 141.77,0 255.05,22.65 340.56,67.96 85.5,44.58 149.81,113.27 192.93,206.08 42.38,92.82 64.3,233.12 64.3,420.21l0 744.68c0,105.96 0.73,180.5 2.2,223.62 1.46,43.85 5.11,84.04 12.42,121.31 7.31,37.27 18.28,66.5 32.15,88.43 14.62,22.65 35.81,41.65 63.58,57 27.77,16.09 73.08,32.16 135.93,48.97l0 105.23 -586.82 0 10.96 -306.2zm-36.54 -670.13c-290.12,2.92 -507.16,41.65 -651.14,115.46 -143.96,74.54 -216.32,186.35 -216.32,336.17 0,81.85 16.82,145.42 49.7,192.93 32.88,46.77 73.81,79.65 124.24,97.2 49.69,18.27 108.88,27.03 177.58,27.03 96.47,0 184.89,-23.38 263.82,-70.88 79.65,-46.77 141.03,-106.69 185.61,-179.78 43.85,-73.08 66.5,-144.7 66.5,-216.32l0 -301.81zm888.65 -1070.62l610.21 0 0 1089.62c0,167.35 6.58,294.51 19.01,381.47 13.16,86.97 32.15,152.73 57.74,196.58 25.57,44.58 62.11,81.85 109.61,111.81 46.78,29.96 111.81,44.58 194.39,44.58 54.82,0 106.7,-10.23 156.39,-32.15 50.43,-21.19 105.96,-58.47 167.36,-111.81 61.38,-54.08 105.23,-106.69 131.54,-160.04 26.31,-52.62 39.46,-114.01 39.46,-184.16l0 -802.41c0,-81.85 -2.19,-143.23 -6.57,-184.16 -4.39,-41.65 -10.97,-74.54 -21.19,-99.39 -10.24,-25.58 -21.92,-45.31 -35.08,-61.38 -13.89,-15.35 -32.88,-29.96 -57.74,-43.12 -25.57,-12.43 -65.76,-26.31 -121.31,-40.19l0 -105.24 610.22 0 0 1462.33c0,110.35 2.19,189.27 6.58,237.51 4.38,48.96 13.15,87.69 27.76,116.19 13.89,28.5 36.54,51.16 66.5,69.42 29.96,17.55 83.31,34.35 160.05,50.43l0 111.08 -489.64 21.19 -130.81 0 12.42 -350.78 -32.15 -8.77c-118.39,128.62 -230.93,222.89 -339.09,282.82 -107.43,59.93 -215.59,89.89 -324.48,89.89 -130.08,0 -236.77,-25.58 -320.82,-77.47 -84.04,-51.16 -146.88,-127.89 -188.54,-230.2 -41.65,-101.57 -62.11,-245.54 -62.11,-431.16l0 -808.99c0,-119.85 -4.39,-202.43 -13.89,-247.74 -9.5,-44.58 -27.04,-80.39 -53.35,-106.7 -26.31,-26.3 -84.04,-51.15 -172.47,-73.8l0 -105.24zm3050.34 355.9l29.96 5.85c78.93,-95.74 151.27,-171.01 218.51,-225.81 67.23,-54.82 139.59,-97.2 217.05,-127.16 78.2,-29.96 165.89,-45.31 264.55,-45.31 83.31,0 157.85,4.38 225.08,13.15l0 492.56 -241.9 0c-34.34,-77.46 -70.88,-133.01 -109.61,-168.08 -38,-35.08 -91.36,-52.62 -157.85,-52.62 -51.89,0 -103.04,15.35 -153.47,45.31 -50.43,29.96 -99.39,73.07 -146.89,130.08 -46.77,57.01 -78.92,111.08 -97.2,160.78 -17.54,49.69 -27.03,108.88 -27.03,177.58l0 749.8c0,129.35 8.04,219.24 24.11,268.19 15.35,49.7 41.66,85.51 78.19,108.16 35.81,22.65 90.63,40.92 163.7,53.35l0 105.23 -863.06 0 0 -105.23c54.08,-16.81 93.55,-32.15 116.93,-44.58 23.38,-13.16 43.85,-30.69 60.65,-53.35 17.54,-23.38 29.96,-57.74 38.73,-105.23 8.77,-46.77 13.16,-120.58 13.16,-220.7l0 -933.22c0,-91.36 -1.46,-165.16 -4.39,-220.7 -2.92,-55.54 -13.16,-100.12 -29.96,-133.74 -17.54,-33.61 -43.12,-58.47 -78.19,-74.54 -35.08,-16.81 -84.78,-30.69 -149.08,-42.38l0 -111.08 501.32 -21.19 130.08 0 -23.38 374.9zm2398.46 1384.85l-32.15 -8.77c-124.24,127.16 -241.16,217.05 -350.05,269.66 -109.62,53.35 -225.81,79.66 -347.85,79.66 -108.89,0 -204.63,-21.19 -287.21,-63.58 -82.58,-41.65 -146.15,-100.84 -190.73,-177.59 -43.85,-76 -66.5,-164.43 -66.5,-264.54 0,-208.28 103.04,-369.05 309.85,-482.32 206.09,-113.28 515.21,-179.78 928.11,-198.05l0 -139.59c0,-148.34 -14.62,-265.27 -43.11,-350.77 -28.5,-85.51 -73.08,-148.35 -134.47,-188.55 -61.39,-40.19 -143.97,-59.93 -246.28,-59.93 -111.81,0 -200.97,29.23 -268.93,87.7 -67.96,58.47 -119.12,146.16 -152.74,263.81l-280.62 0 0 -278.43c136.66,-71.61 250.66,-124.23 342.01,-157.85 91.35,-33.61 182.69,-59.93 274.04,-78.93 91.35,-19 184.16,-29.22 278.43,-29.22 141.77,0 255.05,22.65 340.56,67.96 85.5,44.58 149.8,113.27 192.92,206.08 42.38,92.82 64.3,233.12 64.3,420.21l0 744.68c0,105.96 0.73,180.5 2.2,223.62 1.46,43.85 5.11,84.04 12.42,121.31 7.31,37.27 18.28,66.5 32.15,88.43 14.62,22.65 35.81,41.65 63.58,57 27.77,16.09 73.08,32.16 135.93,48.97l0 105.23 -586.81 0 10.96 -306.2zm-36.54 -670.13c-290.12,2.92 -507.16,41.65 -651.14,115.46 -143.96,74.54 -216.32,186.35 -216.32,336.17 0,81.85 16.82,145.42 49.7,192.93 32.88,46.77 73.81,79.65 124.24,97.2 49.69,18.27 108.88,27.03 177.58,27.03 96.47,0 184.89,-23.38 263.82,-70.88 79.65,-46.77 141.03,-106.69 185.61,-179.78 43.85,-73.08 66.5,-144.7 66.5,-216.32l0 -301.81zm3025.48 976.34l-844.06 0 0 -105.23c56.27,-16.81 95.73,-32.15 119.85,-44.58 24.84,-13.16 44.58,-30.69 61.38,-53.35 16.08,-23.38 29.23,-58.47 38.73,-105.96 8.77,-48.24 13.89,-120.58 13.89,-217.78l0 -560.52c0,-100.13 -2.92,-190.74 -8.77,-271.86 -5.85,-81.85 -15.35,-148.34 -29.23,-200.23 -13.16,-52.62 -29.96,-92.82 -48.97,-122.05 -19,-29.23 -42.38,-54.08 -68.69,-75.27 -26.3,-20.46 -56.27,-37.27 -90.62,-48.96 -34.35,-12.43 -79.66,-18.28 -135.2,-18.28 -55.54,0 -108.16,10.97 -158.58,32.89 -49.7,22.65 -104.5,60.65 -164.43,114.73 -59.93,54.08 -103.77,108.15 -130.82,160.77 -27.03,52.62 -40.92,113.28 -40.92,181.97l0 798.76c0,122.77 5.85,207.54 17.54,255.78 11.7,47.5 32.89,84.04 65.04,108.88 32.15,24.85 84.77,46.77 157.85,65.04l0 105.23 -839.68 0 0 -105.23c55.54,-16.81 95.74,-32.15 119.12,-44.58 23.38,-13.16 43.11,-30.69 59.93,-53.35 16.08,-23.38 29.23,-57.74 38.73,-105.23 8.77,-46.77 13.89,-120.58 13.89,-220.7l0 -933.22c0,-91.36 -1.46,-165.16 -4.39,-220.7 -2.92,-55.54 -13.16,-100.12 -29.96,-133.74 -17.54,-33.61 -43.12,-58.47 -78.19,-74.54 -35.08,-16.81 -84.78,-30.69 -149.08,-42.38l0 -113.28 501.32 -19 130.08 0 -23.38 348.58 29.96 8.78c105.96,-106.7 190.73,-183.43 255.78,-228.74 65.04,-46.04 130.82,-81.12 197.32,-105.96 66.49,-25.57 136.66,-38 210.47,-38 77.46,0 146.15,9.5 206.81,27.03 60.65,17.55 114.01,45.32 160.78,82.59 46.04,37.26 84.77,83.31 114.73,138.12 29.96,54.81 51.89,120.58 67.23,198.04 14.62,76.74 22.65,174.67 22.65,293.06l0 807.53c0,97.93 2.93,169.54 8.04,214.12 5.85,43.85 16.08,78.2 29.96,102.31 14.62,24.11 35.08,44.58 62.12,61.38 27.03,16.08 74.53,33.61 141.76,51.89l0 105.23zm233.13 -1939.53c71.61,-11.7 129.35,-31.42 173.93,-59.93 43.85,-28.5 78.92,-65.77 103.77,-110.35 24.84,-45.31 44.58,-101.58 58.46,-169.55 14.62,-67.23 29.23,-166.62 45.32,-295.97l304 0 0 528.36 691.34 0 0 216.32 -691.34 0 0 952.96c0,138.12 5.85,248.47 16.81,330.32 11.7,82.58 32.89,146.88 64.31,192.93 31.42,46.77 67.23,79.65 107.42,99.39 39.47,20.46 91.36,29.96 154.2,29.96 57.01,0 110.35,-11.7 160.04,-35.08 50.43,-23.38 99.4,-57.73 148.35,-101.57l95.74 115.46c-100.85,98.66 -197.31,170.28 -287.94,214.13 -90.62,44.58 -184.15,66.5 -281.35,66.5 -184.16,0 -320.82,-54.82 -410.71,-163.7 -89.89,-109.62 -135.2,-280.63 -135.2,-513.02l0 -1188.27 -317.16 0 0 -108.88z"/>
  <path class="fil0" d="M17639.65 17805.07l1488.99 0 0 479.11 -134.81 0c-20.19,-78.91 -39.92,-141.38 -59.66,-187.41 -19.73,-46.03 -40.86,-80.79 -62.93,-104.74 -21.61,-23.49 -45.57,-40.87 -70.46,-50.74 -25.36,-9.86 -63.41,-15.03 -113.67,-15.03l-174.74 0 0 1409.14c0,54.03 2.82,97.24 8.93,129.18 6.11,32.41 15.04,57.78 27.24,76.56 12.69,18.79 29.12,33.35 50.26,44.16 21.14,10.33 54.49,20.66 99.12,30.52l0 67.64 -628.95 0 0 -67.64c27.71,-6.1 52.14,-13.15 73.28,-20.66 21.13,-7.05 38.04,-15.97 51.67,-26.77 13.15,-10.34 23.95,-23.95 32.88,-40.39 8.45,-16.45 15.5,-38.99 20.66,-67.64 5.17,-28.18 7.52,-69.98 7.52,-124.95l0 -1409.14 -173.33 0c-43.22,0 -78.91,4.23 -106.62,12.22 -28.18,8.45 -54.02,25.36 -77.97,51.67 -23.96,26.3 -45.57,63.4 -65.29,111.32 -19.73,48.38 -38.05,108.97 -55.9,182.71l-136.22 0 0 -479.11zm2288.92 1681.58l-20.67 -5.64c-79.85,81.73 -155,139.51 -224.98,173.33 -70.46,34.29 -145.14,51.2 -223.58,51.2 -69.99,0 -131.53,-13.62 -184.6,-40.86 -53.08,-26.77 -93.94,-64.82 -122.59,-114.14 -28.18,-48.85 -42.75,-105.68 -42.75,-170.04 0,-133.87 66.23,-237.21 199.16,-310.01 132.46,-72.8 331.15,-115.55 596.54,-127.29l0 -89.72c0,-95.36 -9.4,-170.51 -27.71,-225.46 -18.33,-54.96 -46.98,-95.36 -86.43,-121.19 -39.46,-25.83 -92.54,-38.51 -158.3,-38.51 -71.86,0 -129.17,18.79 -172.85,56.37 -43.69,37.57 -76.57,93.94 -98.18,169.56l-180.38 0 0 -178.96c87.84,-46.03 161.12,-79.85 219.84,-101.45 58.72,-21.61 117.42,-38.52 176.14,-50.74 58.72,-12.21 118.37,-18.79 178.97,-18.79 91.13,0 163.93,14.56 218.89,43.68 54.96,28.65 96.3,72.81 124.01,132.47 27.24,59.66 41.33,149.83 41.33,270.08l0 478.64c0,68.1 0.47,116.02 1.41,143.73 0.94,28.18 3.29,54.02 7.99,77.97 4.7,23.95 11.74,42.74 20.66,56.84 9.4,14.56 23.01,26.77 40.87,36.64 17.85,10.33 46.97,20.66 87.36,31.46l0 67.64 -377.18 0 7.05 -196.81zm-23.48 -430.73c-186.48,1.88 -325.99,26.78 -418.52,74.22 -92.54,47.91 -139.04,119.78 -139.04,216.07 0,52.61 10.8,93.48 31.93,124.01 21.14,30.06 47.45,51.2 79.86,62.46 31.93,11.75 69.98,17.39 114.13,17.39 62,0 118.84,-15.04 169.57,-45.57 51.21,-30.06 90.66,-68.57 119.31,-115.54 28.18,-46.98 42.75,-93.01 42.75,-139.04l0 -194zm1526.1 -386.57l-131.99 0c-20.19,-54.96 -44.16,-98.64 -71.87,-130.11 -27.24,-31.47 -58.71,-54.02 -93.47,-66.7 -34.76,-12.68 -77.5,-19.26 -127.77,-19.26 -73.27,0 -131.99,16.91 -175.67,51.67 -43.69,34.29 -65.29,81.26 -65.29,140.91 0,42.28 8.93,77.03 26.3,104.74 17.38,27.24 44.16,53.09 81.26,77.04 36.64,23.95 100.99,55.43 193.99,94.88 93.48,40.4 165.81,77.5 216.54,111.32 51.21,33.82 90.66,73.28 119.78,118.37 29.12,45.09 43.22,98.65 43.22,161.11 0,72.34 -12.22,133.4 -37.11,183.19 -24.89,49.32 -59.66,89.71 -104.27,120.71 -45.1,31.47 -98.65,54.02 -160.65,67.64 -61.99,13.62 -129.64,20.66 -202.91,20.66 -77.04,0 -151.72,-5.64 -224.05,-17.38 -72.81,-11.28 -143.26,-26.3 -212.32,-44.63l0 -287.46 135.29 0c24.42,84.08 61.05,145.61 109.91,183.65 48.38,38.05 115.54,56.84 201.03,56.84 32.88,0 65.29,-3.29 96.77,-10.34 31.94,-6.57 60.13,-18.32 84.55,-34.28 24.89,-15.98 44.62,-37.58 59.19,-65.29 15.03,-27.71 22.07,-62 22.07,-103.33 0,-46.51 -8.93,-84.55 -27.24,-114.14 -18.32,-29.12 -46.97,-55.9 -85.49,-80.32 -38.52,-24.42 -106.62,-57.31 -203.86,-98.65 -83.14,-34.75 -150.3,-68.57 -200.56,-101.45 -50.74,-33.35 -90.19,-72.34 -119.31,-117.43 -28.65,-44.62 -43.22,-98.17 -43.22,-159.23 0,-75.62 20.2,-140.91 61.06,-196.34 40.87,-55.43 100.06,-97.71 177.09,-127.3 77.03,-29.12 167.22,-44.15 271.02,-44.15 60.59,0 118.84,3.29 175.21,8.93 56.84,6.1 127.29,17.85 212.78,35.22l0 280.89zm206.21 -232.5c46.04,-7.52 83.14,-20.2 111.79,-38.52 28.18,-18.32 50.73,-42.27 66.7,-70.92 15.97,-29.12 28.65,-65.29 37.57,-108.97 9.4,-43.22 18.8,-107.1 29.12,-190.24l195.39 0 0 339.61 444.35 0 0 139.04 -444.35 0 0 612.51c0,88.78 3.76,159.7 10.81,212.32 7.52,53.08 21.13,94.41 41.34,124 20.19,30.06 43.21,51.2 69.04,63.88 25.36,13.15 58.72,19.26 99.11,19.26 36.64,0 70.93,-7.52 102.87,-22.54 32.41,-15.03 63.88,-37.11 95.35,-65.29l61.53 74.22c-64.81,63.4 -126.82,109.44 -185.06,137.63 -58.25,28.65 -118.37,42.74 -180.84,42.74 -118.36,0 -206.2,-35.23 -263.96,-105.21 -57.78,-70.45 -86.9,-180.38 -86.9,-329.74l0 -763.76 -203.86 0 0 -69.98zm2111.36 1012.7c-58.72,61.53 -112.73,109.44 -161.58,144.67 -49.33,34.76 -102.87,62 -161.59,81.73 -58.72,19.74 -123.53,29.59 -194.46,29.59 -188.82,0 -331.62,-56.84 -427.9,-170.04 -96.3,-113.2 -144.2,-280.42 -144.2,-501.65 0,-136.69 24.42,-257.4 73.27,-361.68 49.32,-104.74 119.31,-185.53 209.97,-242.37 91.12,-56.84 195.4,-85.49 313.76,-85.49 92.54,0 171.45,15.03 236.74,44.15 65.29,29.59 117.43,69.52 156.41,120.72 38.99,50.73 69.05,115.08 90.66,192.58 21.6,77.5 33.82,178.5 36.64,303.43l-867.09 0 0 24.42c0,108.51 12.21,199.63 36.64,273.38 23.95,73.74 63.87,131.52 119.3,173.32 55.9,41.81 127.77,62.47 217.02,62.47 75.15,0 142.78,-13.62 202.91,-41.8 60.13,-28.18 119.78,-73.75 179.44,-136.69l84.08 89.24zm-231.1 -558.96c-5.64,-98.64 -17.85,-179.9 -37.11,-242.84 -19.26,-62.47 -48.38,-110.85 -86.89,-144.2 -38.52,-33.35 -88.78,-50.26 -151.25,-50.26 -94.42,0 -170.04,37.58 -226.4,113.67 -56.37,75.62 -89.72,183.65 -99.58,323.63l601.23 0zm1893.43 814.96c-109.91,0 -210.44,-18.32 -300.62,-54.49 -90.66,-36.17 -168.16,-92.54 -232.51,-169.1 -64.82,-76.56 -114.61,-174.74 -150.31,-294.04 -35.22,-119.31 -52.61,-261.63 -52.61,-427.91 0,-204.33 31,-380 93.48,-527.02 62.47,-146.55 151.71,-258.35 267.73,-334.91 116.02,-76.56 250.36,-115.08 403.96,-115.08 162.99,0 300.62,36.17 411.94,108.03 111.32,71.87 195.4,178.03 251.77,318 56.37,139.98 84.55,310.01 84.55,511.05 0,214.66 -31.94,395.96 -96.3,543.45 -64.34,147.96 -154.53,258.35 -271.49,331.62 -116.96,73.75 -253.65,110.38 -409.59,110.38zm-452.81 -984.05c0,281.83 41.33,496.03 123.07,642.57 82.2,147.02 202.44,220.31 359.8,220.31 100.05,0 185.06,-31.94 254.59,-95.83 69.98,-63.41 122.12,-156.88 156.88,-279.95 35.23,-122.6 52.61,-266.32 52.61,-430.73 0,-200.09 -20.66,-365.9 -61.53,-497.43 -40.86,-131.52 -96.29,-227.34 -167.22,-286.99 -70.45,-59.66 -152.65,-89.25 -246.13,-89.25 -82.67,0 -153.59,19.26 -212.78,57.78 -59.19,38.51 -108.03,93.47 -147.02,164.4 -38.99,70.92 -67.64,157.35 -85.49,257.88 -17.85,100.98 -26.77,213.25 -26.77,337.25zm2234.9 -214.66l-328.8 0 0 832.8c0,61.06 2.82,107.56 8.92,138.57 6.11,31.47 14.57,54.96 26.3,70.93 11.28,16.44 26.3,29.12 45.1,38.51 18.79,9.87 48.85,19.27 90.19,28.18l0 67.64 -562.72 0 0 -67.64c40.39,-10.8 69.04,-21.13 86.43,-31.46 17.85,-9.87 30.99,-23.02 40.86,-38.52 9.4,-15.51 16.92,-38.05 21.13,-67.64 4.7,-29.12 7.05,-75.62 7.05,-138.57l0 -832.8 -166.75 0 0 -69.98c35.23,-5.64 58.25,-9.87 69.52,-13.16 11.74,-3.29 22.54,-7.99 33.34,-14.56 10.34,-6.58 19.74,-15.51 27.24,-27.24 7.99,-12.22 15.04,-29.59 20.67,-53.08 6.1,-23.49 10.8,-56.37 14.56,-98.65 8.46,-100.05 26.3,-180.83 54.49,-243.31 27.71,-62.47 68.58,-115.55 122.13,-159.7 54.02,-44.16 111.32,-75.16 172.39,-93.01 61.05,-17.86 132.46,-26.77 215.13,-26.77 72.33,0 133.87,5.17 184.59,15.03l0 248.95 -136.22 0c-17.38,-54.02 -38.04,-92.06 -61.53,-114.61 -23.01,-22.54 -55.9,-33.81 -98.17,-33.81 -30.53,0 -55.9,4.23 -76.56,12.21 -20.67,8.46 -39.46,21.13 -56.84,38.52 -17.39,17.85 -32.41,40.86 -45.1,70.45 -12.21,29.12 -21.13,65.76 -27.24,109.44 -6.1,43.69 -8.92,100.06 -8.92,170.04l0 144.2 328.8 0 0 139.04zm723.36 -701.75l1488.99 0 0 479.11 -134.81 0c-20.19,-78.91 -39.92,-141.38 -59.66,-187.41 -19.73,-46.03 -40.86,-80.79 -62.93,-104.74 -21.61,-23.49 -45.57,-40.87 -70.46,-50.74 -25.36,-9.86 -63.41,-15.03 -113.67,-15.03l-174.74 0 0 1409.14c0,54.03 2.82,97.24 8.93,129.18 6.11,32.41 15.04,57.78 27.24,76.56 12.69,18.79 29.12,33.35 50.26,44.16 21.14,10.33 54.49,20.66 99.12,30.52l0 67.64 -628.95 0 0 -67.64c27.71,-6.1 52.14,-13.15 73.28,-20.66 21.13,-7.05 38.04,-15.97 51.67,-26.77 13.15,-10.34 23.95,-23.95 32.88,-40.39 8.45,-16.45 15.5,-38.99 20.66,-67.64 5.17,-28.18 7.52,-69.98 7.52,-124.95l0 -1409.14 -173.33 0c-43.22,0 -78.91,4.23 -106.62,12.22 -28.18,8.45 -54.02,25.36 -77.97,51.67 -23.96,26.3 -45.57,63.4 -65.29,111.32 -19.73,48.38 -38.05,108.97 -55.9,182.71l-136.22 0 0 -479.11zm1988.77 791.47l19.26 3.76c50.73,-61.53 97.24,-109.91 140.44,-145.14 43.22,-35.23 89.72,-62.47 139.51,-81.73 50.26,-19.26 106.62,-29.12 170.03,-29.12 53.55,0 101.45,2.82 144.67,8.46l0 316.58 -155.47 0c-22.07,-49.79 -45.56,-85.49 -70.45,-108.03 -24.42,-22.54 -58.72,-33.82 -101.45,-33.82 -33.35,0 -66.23,9.87 -98.65,29.12 -32.41,19.27 -63.88,46.98 -94.41,83.61 -30.06,36.64 -50.74,71.4 -62.47,103.34 -11.28,31.94 -17.39,69.98 -17.39,114.14l0 481.92c0,83.14 5.17,140.91 15.51,172.39 9.87,31.94 26.77,54.96 50.26,69.52 23.01,14.56 58.25,26.3 105.21,34.28l0 67.64 -554.73 0 0 -67.64c34.76,-10.8 60.13,-20.66 75.15,-28.65 15.04,-8.45 28.18,-19.73 38.99,-34.28 11.28,-15.04 19.26,-37.11 24.89,-67.64 5.64,-30.06 8.46,-77.5 8.46,-141.85l0 -599.82c0,-58.72 -0.94,-106.16 -2.82,-141.85 -1.88,-35.7 -8.46,-64.35 -19.26,-85.96 -11.28,-21.6 -27.71,-37.58 -50.27,-47.91 -22.54,-10.81 -54.49,-19.74 -95.82,-27.24l0 -71.4 322.22 -13.62 83.61 0 -15.03 240.96zm1541.6 890.11l-20.67 -5.64c-79.85,81.73 -155,139.51 -224.98,173.33 -70.46,34.29 -145.14,51.2 -223.58,51.2 -69.99,0 -131.53,-13.62 -184.6,-40.86 -53.08,-26.77 -93.94,-64.82 -122.59,-114.14 -28.18,-48.85 -42.75,-105.68 -42.75,-170.04 0,-133.87 66.23,-237.21 199.16,-310.01 132.46,-72.8 331.15,-115.55 596.54,-127.29l0 -89.72c0,-95.36 -9.4,-170.51 -27.71,-225.46 -18.33,-54.96 -46.98,-95.36 -86.43,-121.19 -39.46,-25.83 -92.54,-38.51 -158.3,-38.51 -71.86,0 -129.17,18.79 -172.85,56.37 -43.69,37.57 -76.57,93.94 -98.18,169.56l-180.38 0 0 -178.96c87.84,-46.03 161.12,-79.85 219.84,-101.45 58.72,-21.61 117.42,-38.52 176.14,-50.74 58.72,-12.21 118.37,-18.79 178.97,-18.79 91.13,0 163.93,14.56 218.89,43.68 54.96,28.65 96.3,72.81 124.01,132.47 27.24,59.66 41.33,149.83 41.33,270.08l0 478.64c0,68.1 0.47,116.02 1.41,143.73 0.94,28.18 3.29,54.02 7.99,77.97 4.7,23.95 11.74,42.74 20.66,56.84 9.4,14.56 23.01,26.77 40.87,36.64 17.85,10.33 46.97,20.66 87.36,31.46l0 67.64 -377.18 0 7.05 -196.81zm-23.48 -430.73c-186.48,1.88 -325.99,26.78 -418.52,74.22 -92.54,47.91 -139.04,119.78 -139.04,216.07 0,52.61 10.8,93.48 31.93,124.01 21.14,30.06 47.45,51.2 79.86,62.46 31.93,11.75 69.98,17.39 114.13,17.39 62,0 118.84,-15.04 169.57,-45.57 51.21,-30.06 90.66,-68.57 119.31,-115.54 28.18,-46.98 42.75,-93.01 42.75,-139.04l0 -194zm1533.15 -868.49c0,-87.84 -0.94,-149.37 -2.35,-184.13 -1.41,-34.76 -4.7,-64.34 -10.81,-88.78 -6.1,-24.42 -14.09,-43.21 -24.89,-57.31 -10.33,-13.62 -24.89,-24.42 -42.74,-32.87 -17.86,-8.46 -50.26,-16.45 -96.77,-24.89l0 -71.4 333.03 -13.62 81.26 0 0 1593.26c0,71.87 1.41,122.6 3.76,153.6 2.82,30.53 8.93,55.43 18.33,73.74 8.92,18.33 23.48,32.88 43.21,44.63 19.73,11.27 54.49,22.07 103.8,32.41l0 71.39 -324.57 13.63 -82.67 0 16.44 -225.46 -20.66 -5.64c-57.78,61.53 -108.03,107.56 -150.77,138.57 -42.75,30.53 -87.84,54.96 -136.23,73.27 -47.91,18.33 -99.58,27.71 -154.53,27.71 -150.78,0 -266.79,-57.31 -348.53,-171.45 -81.26,-114.14 -122.12,-279.01 -122.12,-494.61 0,-150.31 26.3,-278.07 79.85,-383.28 53.08,-105.21 124.94,-183.19 215.13,-234.86 90.19,-51.2 192.11,-77.03 304.84,-77.03 60.59,0 115.55,5.17 165.34,14.56 49.33,9.87 100.06,25.37 152.66,47.45l0 -218.89zm0 680.14c0,-71.86 -3.29,-129.17 -9.87,-172.39 -6.11,-42.74 -16.91,-78.91 -32.41,-108.5 -15.03,-29.12 -35.22,-54.02 -61.05,-74.21 -25.83,-20.19 -54.02,-34.76 -84.55,-44.15 -31,-8.93 -67.64,-13.63 -110.85,-13.63 -117.43,0 -206.68,46.97 -268.21,140.91 -61.53,93.95 -92.53,229.22 -92.53,405.36 0,176.15 25.36,310.01 76.09,401.61 50.26,92.07 126.82,137.63 229.69,137.63 40.39,0 73.74,-3.29 100.51,-10.33 26.3,-6.58 52.61,-17.86 78.44,-32.88 25.36,-15.04 51.67,-36.17 78.44,-62.47 26.3,-26.77 46.04,-51.2 58.25,-73.27 12.69,-21.61 22.07,-46.98 28.18,-75.63 6.58,-28.18 9.87,-64.81 9.87,-109.91l0 -308.13zm1027.73 -1039.01l0 266.8 -253.18 0 0 -266.8 253.18 0zm-393.62 1787.26c35.7,-10.8 61.53,-20.66 76.56,-28.65 15.04,-8.45 27.71,-19.73 38.52,-34.28 10.34,-15.04 18.79,-37.11 24.89,-67.64 5.64,-30.06 8.93,-77.5 8.93,-141.85l0 -599.82c0,-58.72 -0.94,-106.16 -2.82,-141.85 -1.88,-35.7 -8.46,-64.35 -19.26,-85.96 -11.28,-21.6 -27.71,-37.58 -50.27,-47.91 -22.54,-10.81 -54.49,-19.74 -95.82,-27.24l0 -72.81 320.81 -12.21 83.61 0 0 984.04c0,78.91 3.76,133.41 11.28,164.4 7.52,30.53 21.13,54.02 41.81,69.99 20.66,15.97 54.49,30.06 101.45,41.8l0 67.64 -539.71 0 0 -67.64zm700.35 -1178.98c46.04,-7.52 83.14,-20.2 111.79,-38.52 28.18,-18.32 50.73,-42.27 66.7,-70.92 15.97,-29.12 28.65,-65.29 37.57,-108.97 9.4,-43.22 18.8,-107.1 29.12,-190.24l195.4 0 0 339.61 444.35 0 0 139.04 -444.35 0 0 612.51c0,88.78 3.76,159.7 10.81,212.32 7.52,53.08 21.13,94.41 41.34,124 20.19,30.06 43.21,51.2 69.04,63.88 25.36,13.15 58.72,19.26 99.11,19.26 36.64,0 70.93,-7.52 102.87,-22.54 32.41,-15.03 63.88,-37.11 95.35,-65.29l61.53 74.22c-64.81,63.4 -126.82,109.44 -185.06,137.63 -58.25,28.65 -118.37,42.74 -180.84,42.74 -118.36,0 -206.2,-35.23 -263.97,-105.21 -57.78,-70.45 -86.9,-180.38 -86.9,-329.74l0 -763.76 -203.86 0 0 -69.98zm1429.81 -608.29l0 266.8 -253.18 0 0 -266.8 253.18 0zm-393.62 1787.26c35.7,-10.8 61.53,-20.66 76.56,-28.65 15.04,-8.45 27.71,-19.73 38.52,-34.28 10.34,-15.04 18.79,-37.11 24.89,-67.64 5.64,-30.06 8.93,-77.5 8.93,-141.85l0 -599.82c0,-58.72 -0.94,-106.16 -2.82,-141.85 -1.88,-35.7 -8.46,-64.35 -19.26,-85.96 -11.28,-21.6 -27.71,-37.58 -50.27,-47.91 -22.54,-10.81 -54.49,-19.74 -95.82,-27.24l0 -72.81 320.81 -12.21 83.61 0 0 984.04c0,78.91 3.76,133.41 11.28,164.4 7.52,30.53 21.13,54.02 41.81,69.99 20.66,15.97 54.49,30.06 101.45,41.8l0 67.64 -539.71 0 0 -67.64zm1381.91 89.72c-191.17,0 -336.79,-56.37 -437.31,-168.63 -100.05,-112.26 -150.3,-278.54 -150.3,-498.84 0,-151.24 26.3,-279.48 78.91,-383.75 52.61,-104.74 124.95,-182.72 217.01,-233.45 91.6,-50.73 195.87,-76.56 313.3,-76.56 196.34,0 345.24,57.31 446.23,171.45 100.98,114.14 151.25,278.07 151.25,492.26 0,152.19 -25.37,280.42 -75.63,385.16 -50.73,104.28 -122.12,182.72 -214.66,234.39 -92.54,52.14 -202.45,77.97 -328.8,77.97zm-327.86 -696.59c0,189.29 30.05,334.44 90.18,435.9 60.13,101.45 146.08,151.71 258.35,151.71 61.06,0 113.67,-14.56 156.88,-44.62 42.75,-29.59 77.98,-69.99 105.22,-120.25 26.77,-50.73 46.5,-108.97 58.25,-175.68 12.21,-66.22 17.85,-135.75 17.85,-208.55 0,-134.81 -14.57,-246.6 -44.63,-335.38 -29.58,-89.25 -70.45,-154.54 -121.65,-196.34 -51.67,-41.81 -110.38,-62.47 -176.15,-62.47 -111.32,0 -196.34,47.91 -255.53,144.2 -59.19,96.76 -88.77,233.92 -88.77,411.47zm2565.56 674.51l-542.5 0 0 -67.64c36.16,-10.8 61.52,-20.66 77.03,-28.65 15.97,-8.45 28.65,-19.73 39.45,-34.28 10.34,-15.04 18.8,-37.58 24.9,-68.11 5.63,-31 8.92,-77.5 8.92,-139.98l0 -360.27c0,-64.35 -1.88,-122.6 -5.64,-174.74 -3.75,-52.61 -9.86,-95.35 -18.79,-128.7 -8.46,-33.82 -19.26,-59.66 -31.47,-78.44 -12.21,-18.8 -27.24,-34.76 -44.15,-48.39 -16.92,-13.15 -36.17,-23.95 -58.25,-31.46 -22.07,-7.99 -51.2,-11.75 -86.9,-11.75 -35.7,0 -69.51,7.05 -101.92,21.13 -31.94,14.57 -67.17,38.99 -105.69,73.75 -38.51,34.75 -66.69,69.51 -84.08,103.33 -17.38,33.82 -26.3,72.8 -26.3,116.96l0 513.39c0,78.91 3.76,133.41 11.28,164.4 7.52,30.53 21.13,54.02 41.81,69.99 20.66,15.97 54.49,30.06 101.45,41.8l0 67.64 -539.71 0 0 -67.64c35.7,-10.8 61.53,-20.66 76.56,-28.65 15.04,-8.45 27.71,-19.73 38.52,-34.28 10.34,-15.04 18.79,-37.11 24.89,-67.64 5.64,-30.06 8.93,-77.5 8.93,-141.85l0 -599.82c0,-58.72 -0.94,-106.16 -2.82,-141.85 -1.88,-35.7 -8.46,-64.35 -19.26,-85.96 -11.28,-21.6 -27.71,-37.58 -50.27,-47.91 -22.54,-10.81 -54.49,-19.74 -95.82,-27.24l0 -72.81 322.22 -12.21 83.61 0 -15.03 224.05 19.26 5.63c68.11,-68.57 122.6,-117.89 164.4,-147.01 41.81,-29.59 84.08,-52.15 126.83,-68.11 42.74,-16.44 87.84,-24.42 135.28,-24.42 49.79,0 93.95,6.11 132.93,17.38 38.99,11.28 73.28,29.12 103.33,53.08 29.59,23.96 54.5,53.55 73.75,88.78 19.25,35.23 33.34,77.5 43.2,127.3 9.4,49.32 14.57,112.26 14.57,188.35l0 519.03c0,62.94 1.88,108.97 5.17,137.63 3.75,28.18 10.33,50.27 19.26,65.76 9.4,15.5 22.54,28.65 39.92,39.46 17.39,10.33 47.92,21.6 91.13,33.34l0 67.64zm1154.56 -1014.12l-131.99 0c-20.19,-54.96 -44.16,-98.64 -71.87,-130.11 -27.24,-31.47 -58.71,-54.02 -93.47,-66.7 -34.76,-12.68 -77.5,-19.26 -127.77,-19.26 -73.27,0 -131.99,16.91 -175.67,51.67 -43.69,34.29 -65.29,81.26 -65.29,140.91 0,42.28 8.93,77.03 26.3,104.74 17.38,27.24 44.16,53.09 81.26,77.04 36.64,23.95 100.99,55.43 193.99,94.88 93.48,40.4 165.81,77.5 216.54,111.32 51.21,33.82 90.66,73.28 119.78,118.37 29.12,45.09 43.22,98.65 43.22,161.11 0,72.34 -12.22,133.4 -37.11,183.19 -24.89,49.32 -59.66,89.71 -104.27,120.71 -45.1,31.47 -98.65,54.02 -160.65,67.64 -61.99,13.62 -129.64,20.66 -202.91,20.66 -77.04,0 -151.72,-5.64 -224.05,-17.38 -72.81,-11.28 -143.26,-26.3 -212.32,-44.63l0 -287.46 135.29 0c24.42,84.08 61.05,145.61 109.91,183.65 48.38,38.05 115.54,56.84 201.03,56.84 32.88,0 65.29,-3.29 96.77,-10.34 31.94,-6.57 60.13,-18.32 84.55,-34.28 24.89,-15.98 44.62,-37.58 59.19,-65.29 15.03,-27.71 22.07,-62 22.07,-103.33 0,-46.51 -8.93,-84.55 -27.24,-114.14 -18.32,-29.12 -46.97,-55.9 -85.49,-80.32 -38.52,-24.42 -106.62,-57.31 -203.86,-98.65 -83.14,-34.75 -150.3,-68.57 -200.56,-101.45 -50.74,-33.35 -90.19,-72.34 -119.31,-117.43 -28.65,-44.62 -43.22,-98.17 -43.22,-159.23 0,-75.62 20.2,-140.91 61.06,-196.34 40.87,-55.43 100.06,-97.71 177.09,-127.3 77.03,-29.12 167.22,-44.15 271.02,-44.15 60.59,0 118.84,3.29 175.21,8.93 56.84,6.1 127.29,17.85 212.78,35.22l0 280.89z"/>
  <polygon class="fil0" points="22260.46,1134.85 37905.33,1134.85 37905.33,1821.24 22260.46,1821.24 "/>
  <polygon class="fil0" points="0.1,17363.44 15644.88,17363.44 15644.88,18049.82 0.1,18049.82 "/>
 </g>
</svg>
